# xmcd
#
# Track frame offsets: 
#        150
#        14945
#        30692
#        44647
#        58537
#        71821
#        86597
#        101603
#        115492
#        129663
#        145275
#        160597
#        175893
#
# Disc length: 2551 seconds
#
# Revision: 0
# Processed by: cddbd v1.4PL0 Copyright (c) Steve Scherf et al.
# Submitted via: ExactAudioCopy v0.95a3
#
DISCID=bf09f50d
DTITLE=Louis Armstrong - Original Artist Hit List - Louis Armstrong
DYEAR=2003
DGENRE=
TTITLE0=I've Got The World On A String
TTITLE1=Stardust
TTITLE2=St. Louis Blues
TTITLE3=I Gotta' Right To Sing The Blues
TTITLE4=Heebie Jeebies
TTITLE5=You Rascal, You
TTITLE6=West End Blues
TTITLE7=Hobo, You Can't Ride This Train
TTITLE8=Cornet Chop Suey
TTITLE9=Mahogany Hall Stomp
TTITLE10=Save It, Pretty Mama
TTITLE11=I'm Confessin' (That I Love You)
TTITLE12=When It's Sleepy Time Down South
EXTD=
EXTT0=
EXTT1=
EXTT2=
EXTT3=
EXTT4=
EXTT5=
EXTT6=
EXTT7=
EXTT8=
EXTT9=
EXTT10=
EXTT11=
EXTT12=
PLAYORDER=
